# xmcd CD database file
#
# Track frame offsets:
#	150
#	25087
#	47610
#	62585
#
# Disc length: 1164 seconds
#
# Revision: 0
# Processed by: cddbd v1.5PL3 Copyright (c) Steve Scherf et al.
# Submitted via: CDex 1.50
#
DISCID=28048a04
DTITLE=高岡亜衣 - 光と風と君の中で
DYEAR=2004
DGENRE=JPop
TTITLE0=光と風と君の中で
TTITLE1=I
TTITLE2=mom call me
TTITLE3=光と風と君の中で（instrumental）
EXTD=YEAR: 2004
EXTT0=
EXTT1=
EXTT2=
EXTT3=
PLAYORDER=
